<svg xmlns="http://www.w3.org/2000/svg" xmlns:xlink="http://www.w3.org/1999/xlink" fill="none" version="1.1" width="160" height="160" viewBox="0 0 160 160"><defs><clipPath id="master_svg0_45_602"><rect x="0" y="0" width="160" height="160" rx="0"/></clipPath></defs><g clip-path="url(#master_svg0_45_602)"><ellipse cx="80" cy="80" rx="80.25" ry="80.25" fill="#F5D949" fill-opacity="1" style="mix-blend-mode:passthrough"/><path d="M54.30574968408203,63.71765139428711C52.42339668408203,63.71765139428711,50.72928068408203,63.43529539428711,49.12928008408203,62.77647639428711C47.52927918408203,62.11765439428711,46.11751458408203,61.270593394287104,44.98810198408203,60.04706239428711C43.85868958408203,58.91765039428711,42.91751308408203,57.50588439428711,42.258688884082034,55.90588339428711C41.59986468408203,54.30588339428711,41.31751251408203,52.61176639428711,41.31751251408203,50.63529739428711C41.31751251408203,48.75294539428711,41.69398448408203,47.05882839428711,42.35280518408203,45.45882749428711C43.01162578408203,43.85882709428711,43.95280578408203,42.54118199428711,45.08221818408203,41.31764979428711C46.30574658408203,40.18823739428711,47.62339548408203,39.24706099428711,49.31751248408203,38.58823680428711C51.011628684082034,37.92941260428711,52.70574568408203,37.64706039428711,54.58809868408203,37.64706039428711C55.81162768408203,37.64706039428711,56.94103968408203,37.83529639428711,58.07045168408203,38.11764860428711C59.19986368408203,38.40000081428711,60.32927668408203,38.87058899428711,61.27045268408203,39.52941319428711C62.30574968408203,40.09411759428711,63.15280868408203,40.84706159428711,63.81163068408203,41.69411799428711L60.04692468408203,45.929411894287114C59.57633568408203,45.36470799428711,59.01163268408203,44.98823549428711,58.446924684082035,44.51764729428711C57.88221968408203,44.14117529428711,57.31751268408203,43.858823294287106,56.56457168408203,43.57647089428711C55.81163168408203,43.29411889428711,55.15280668408203,43.29411889428711,54.39986568408203,43.29411889428711C53.45868968408203,43.29411889428711,52.51751368408203,43.48235509428711,51.67045268408203,43.858823294287106C50.82339268408203,44.23529529428711,50.07045268408203,44.70588349428711,49.41162778408203,45.364704094287106C48.75280378408203,46.02352809428711,48.28221558408203,46.77646829428711,47.905747384082034,47.717644394287106C47.529275384082034,48.65882139428711,47.34104298408203,49.59999739428711,47.34104298408203,50.72941039428711C47.34104298408203,51.85882239428711,47.52927918408203,52.79999939428711,47.905747384082034,53.741174394287114C48.28221938408203,54.68235239428711,48.752807584082035,55.435293394287115,49.41162778408203,56.09411639428711C50.07045268408203,56.752941394287106,50.82339268408203,57.22352939428711,51.76456968408203,57.59999639428711C52.70574568408203,57.97646539428711,53.74103868408203,58.07058539428711,54.87045068408203,58.07058539428711C55.62339068408203,58.07058539428711,56.37633168408203,57.97646939428711,57.03515668408203,57.78823239428711C57.69397968408203,57.59999639428711,58.35280368408203,57.31764639428711,58.91750868408203,56.941173394287105C59.48221168408203,56.56470139428711,60.04692068408203,56.18823239428711,60.51750968408203,55.623525394287114L63.43515768408203,60.23528639428711C62.870454684082034,60.894107394287104,62.02339368408203,61.45881839428711,61.08221768408203,62.02352339428711C60.04692468408203,62.588228394287114,59.01162868408203,62.96470039428711,57.78809968408203,63.24705539428711C56.65869168408203,63.52941939428711,55.43516268408203,63.71765139428711,54.30574968408203,63.71765139428711ZM79.15279368408204,63.71765939428711C77.27044268408204,63.71765939428711,75.48220868408202,63.435302394287106,73.88220968408203,62.77648339428711C72.28221168408203,62.11766239428711,70.96456368408204,61.27060139428711,69.74103168408203,60.04706939428711C68.61162168408202,58.917657394287104,67.67044668408204,57.505891394287104,67.01161968408204,55.90589139428711C66.35279068408204,54.30589139428711,66.07044268408202,52.61177439428711,66.07044268408202,50.72942139428711C66.07044268408202,48.847068394287106,66.35279868408203,47.15295219428711,67.01161968408204,45.55295129428711C67.67043868408203,43.95295099428711,68.51749968408203,42.63530589428711,69.74103168408203,41.411773694287106C70.87044168408204,40.28236129428711,72.28220568408203,39.34118489428711,73.88220968408203,38.68236069428711C75.48221568408204,38.02353644428711,77.17632668408203,37.74118423428711,79.05867768408203,37.74118423428711C80.94103268408203,37.74118423428711,82.63515468408204,38.02353644428711,84.23514968408203,38.68236069428711C85.83514768408203,39.34118489428711,87.15279368408204,40.18824149428711,88.37632768408203,41.411773694287106C89.50573768408202,42.54118629428711,90.44691468408203,43.95295099428711,91.10574368408203,45.55295129428711C91.76456868408204,47.15295219428711,92.04691668408202,48.847068394287106,92.04691668408202,50.72942139428711C92.04691668408202,52.61177439428711,91.76456068408203,54.30589139428711,91.10574368408203,55.90589139428711C90.44692268408204,57.505891394287104,89.59986068408203,58.917657394287104,88.37632768408203,60.04706939428711C87.24691768408204,61.176479394287114,85.83515168408204,62.11765439428711,84.23514968408203,62.77648339428711C82.72927068408202,63.34118639428711,81.03514868408203,63.71765939428711,79.15279368408204,63.71765939428711ZM79.15279368408204,57.97648439428711C80.09397168408202,57.97648439428711,81.03514868408203,57.78824839428711,81.88220968408203,57.41177939428711C82.72927068408202,57.03531039428711,83.38809168408204,56.56472039428711,84.04691668408202,55.905899394287104C84.61162168408202,55.24707439428711,85.08221068408203,54.49413539428711,85.45868268408202,53.55295839428711C85.83515168408204,52.70589839428711,85.92926768408202,51.67060539428711,85.92926768408202,50.63531339428711C85.92926768408202,49.60002039428711,85.74103568408202,48.65884439428711,85.45868268408202,47.71766739428711C85.08221068408203,46.870607394287106,84.61162168408202,46.02354999428711,84.04691668408202,45.36472609428711C83.48221568408204,44.70590209428711,82.72927068408202,44.23531389428711,81.88220968408203,43.85884519428711C81.03514868408203,43.482373194287106,80.18808768408203,43.29414079428711,79.15279368408204,43.29414079428711C78.11750368408204,43.29414079428711,77.27044268408204,43.48237709428711,76.42338168408203,43.85884519428711C75.57632468408204,44.235317194287106,74.91750368408202,44.70590539428711,74.25867468408202,45.36472609428711C73.59985368408203,46.02354999428711,73.12926468408203,46.77649119428711,72.84690868408202,47.71766739428711C72.56455268408203,48.56472739428711,72.37632168408203,49.60002039428711,72.37632168408203,50.63531339428711C72.37632168408203,51.67060539428711,72.56455268408203,52.61178239428711,72.84690868408202,53.55295839428711C73.12926468408203,54.49413539428711,73.59985368408203,55.24707439428711,74.25867468408202,55.905899394287104C74.91749568408204,56.56472439428711,75.57632468408204,57.03531039428711,76.42338168408203,57.41177939428711C77.27044268408204,57.78824839428711,78.11750368408204,57.97648439428711,79.15279368408204,57.97648439428711ZM107.38811468408203,63.52942839428711C105.31752768408204,63.52942839428711,103.43517268408203,63.058841394287114,101.83517068408203,62.21178039428711C100.23516468408204,61.36472139428711,98.91752268408203,60.23531139428711,97.97634868408204,58.729427394287114C97.03517168408203,57.22354739428711,96.56458268408204,55.529424394287105,96.56458268408204,53.64707139428711L96.56458268408204,38.30589675428711L102.68222768408202,38.30589675428711L102.68222768408202,53.45883639428711C102.68222768408202,54.400013394287114,102.87046068408203,55.15295439428711,103.24693268408203,55.905893394287105C103.62340568408203,56.65883439428711,104.18811068408203,57.223543394287105,104.94105568408203,57.60001139428711C105.59987668408203,57.97648239428711,106.44693768408203,58.258834394287106,107.29399868408203,58.258834394287106C108.23517568408204,58.258834394287106,108.98811368408204,58.07059839428711,109.74105068408203,57.60001139428711C110.39987168408203,57.22353939428711,111.05870068408203,56.56471839428711,111.43517268408203,55.905893394287105C111.90576168408204,55.15295439428711,112.09399368408204,54.400013394287114,112.09399368408204,53.45883639428711L112.09399368408204,38.30589675428711L118.02340668408203,38.30589675428711L118.02340668408203,53.741191394287114C118.02340668408203,55.62354439428711,117.55281868408203,57.31766339428711,116.61164068408203,58.82354739428711C115.67046368408204,60.32942739428711,114.44693768408203,61.45884339428711,112.75282268408203,62.30589639428711C111.05870868408203,63.15295039428711,109.45869468408203,63.52942839428711,107.38811468408203,63.52942839428711ZM54.30574968408203,92.14118939428711C52.42339668408203,92.14118939428711,50.72928068408203,91.8588333942871,49.12928008408203,91.2000163942871C47.52927918408203,90.54119539428712,46.11751458408203,89.6941333942871,44.98810198408203,88.47060039428712C43.85868958408203,87.34119039428711,42.91751308408203,85.92942439428711,42.258688884082034,84.3294223942871C41.59986468408203,82.72942739428711,41.31751251408203,81.03530539428711,41.31751251408203,79.05883439428712C41.31751251408203,77.17648339428712,41.69398448408203,75.48236439428712,42.35280518408203,73.88236639428712C43.01162578408203,72.2823673942871,43.95280578408203,70.96472139428711,45.08221818408203,69.74118839428711C46.30574658408203,68.61177839428711,47.62339548408203,67.6706023942871,49.31751248408203,67.01177639428711C51.011628684082034,66.35294739428711,52.70574568408203,66.07059839428712,54.58809868408203,66.07059839428712C55.81162768408203,66.07059839428712,56.94103968408203,66.25883139428711,58.07045168408203,66.5411873942871C59.19986368408203,66.82354339428711,60.32927668408203,67.29413039428711,61.27045268408203,67.95295139428711C62.30574968408203,68.51765639428712,63.15280868408203,69.2705993942871,63.81163068408203,70.1176603942871L60.04692468408203,74.35295439428711C59.57633568408203,73.7882503942871,59.01163268408203,73.4117773942871,58.446924684082035,72.94118839428711C57.88221968408203,72.5647163942871,57.31751268408203,72.2823673942871,56.56457168408203,72.0000113942871C55.81163168408203,71.7176553942871,55.15280668408203,71.7176553942871,54.39986568408203,71.7176553942871C53.45868968408203,71.7176553942871,52.51751368408203,71.9058873942871,51.67045268408203,72.28236039428711C50.82339268408203,72.65883239428712,50.07045268408203,73.1294213942871,49.41162778408203,73.78824239428711C48.75280378408203,74.44706339428711,48.28221558408203,75.20000839428711,47.905747384082034,76.14118239428711C47.529275384082034,77.08235939428711,47.34104298408203,78.0235363942871,47.34104298408203,79.15294239428711C47.34104298408203,80.2823523942871,47.52927918408203,81.22352939428711,47.905747384082034,82.1647073942871C48.28221938408203,83.1058843942871,48.752807584082035,83.85882939428711,49.41162778408203,84.51764639428711C50.07045268408203,85.1764683942871,50.82339268408203,85.64705639428712,51.76456968408203,86.02352939428711C52.70574568408203,86.39999739428711,53.74103868408203,86.49411439428711,54.87045068408203,86.49411439428711C55.62339068408203,86.49411439428711,56.37633168408203,86.39999739428711,57.03515668408203,86.21176139428711C57.69397968408203,86.02352939428711,58.35280368408203,85.7411723942871,58.91750868408203,85.36470039428711C59.48221168408203,84.98822739428711,60.04692068408203,84.6117593942871,60.51750968408203,84.0470543942871L63.43515768408203,88.65881739428711C62.870454684082034,89.31763839428712,62.02339368408203,89.8823513942871,61.08221768408203,90.4470553942871C60.04692468408203,91.01176039428711,59.01162868408203,91.38823339428711,57.78809968408203,91.6705893942871C56.65869168408203,91.95294939428712,55.43516268408203,92.14118939428711,54.30574968408203,92.14118939428711ZM79.15279368408204,92.1411973942871C77.27044268408204,92.1411973942871,75.48220868408202,91.85884139428711,73.88220968408203,91.20002339428711C72.28221168408203,90.54120239428711,70.96456368408204,89.6941413942871,69.74103168408203,88.4706073942871C68.61162168408202,87.34119839428712,67.67044668408204,85.92943239428712,67.01161968408204,84.3294293942871C66.35279068408204,82.72942739428711,66.07044268408202,81.0353123942871,66.07044268408202,79.15295839428711C66.07044268408202,77.27060739428711,66.35279868408203,75.57648839428711,67.01161968408204,73.97649039428711C67.67043868408203,72.37649139428711,68.51749968408203,71.05884539428712,69.74103168408203,69.83531139428712C70.87044168408204,68.70590239428711,72.28220568408203,67.76472639428711,73.88220968408203,67.1058993942871C75.48221568408204,66.44707139428711,77.17632668408203,66.16472239428711,79.05867768408203,66.16472239428711C80.94103268408203,66.16472239428711,82.63515468408204,66.4470783942871,84.23514968408203,67.1058993942871C85.83514768408203,67.76471939428711,87.15279368408204,68.61178039428711,88.37632768408203,69.83531139428712C89.50573768408202,70.96472139428711,90.44691468408203,72.3764843942871,91.10574368408203,73.97649039428711C91.76456868408204,75.57649639428712,92.04691668408202,77.27060739428711,92.04691668408202,79.15295839428711C92.04691668408202,81.0353123942871,91.76456068408203,82.72943539428711,91.10574368408203,84.3294293942871C90.44692268408204,85.9294283942871,89.59986068408203,87.34119039428711,88.37632768408203,88.4706073942871C87.24691768408204,89.60001739428711,85.83515168408204,90.54119539428712,84.23514968408203,91.20002339428711C82.72927068408202,91.7647243942871,81.03514868408203,92.1411973942871,79.15279368408204,92.1411973942871ZM79.15279368408204,86.4000133942871C80.09397168408202,86.4000133942871,81.03514868408203,86.2117803942871,81.88220968408203,85.83531139428712C82.72927068408202,85.45883939428711,83.38809168408204,84.9882503942871,84.04691668408202,84.3294293942871C84.61162168408202,83.6706123942871,85.08221068408203,82.91766739428711,85.45868268408202,81.97649039428711C85.83515168408204,81.12942839428712,85.92926768408202,80.09413539428711,85.92926768408202,79.0588413942871C85.92926768408202,78.02355239428711,85.74103568408202,77.08237439428711,85.45868268408202,76.1411973942871C85.08221068408203,75.2941393942871,84.61162168408202,74.4470783942871,84.04691668408202,73.78825739428711C83.48221568408204,73.12943639428711,82.72927068408202,72.65884739428711,81.88220968408203,72.2823753942871C81.03514868408203,71.90590239428711,80.18808768408203,71.71767039428711,79.15279368408204,71.71767039428711C78.11750368408204,71.71767039428711,77.27044268408204,71.90590239428711,76.42338168408203,72.2823753942871C75.57632468408204,72.65884739428711,74.91750368408202,73.12943639428711,74.25867468408202,73.78825739428711C73.59985368408203,74.4470783942871,73.12926468408203,75.20002339428711,72.84690868408202,76.1411973942871C72.56455268408203,76.9882583942871,72.37632168408203,78.02355239428711,72.37632168408203,79.0588413942871C72.37632168408203,80.09413539428711,72.56455268408203,81.0353123942871,72.84690868408202,81.97649039428711C73.12926468408203,82.91766739428711,73.59985368408203,83.6706123942871,74.25867468408202,84.3294293942871C74.91749568408204,84.9882503942871,75.57632468408204,85.45883939428711,76.42338168408203,85.83531139428712C77.27044268408204,86.2117803942871,78.11750368408204,86.4000133942871,79.15279368408204,86.4000133942871ZM107.38811468408203,91.95293039428711C105.31752768408204,91.95293039428711,103.43517268408203,91.48234139428712,101.83517068408203,90.63528039428711C100.23516468408204,89.78821939428711,98.91752268408203,88.65880939428712,97.97634868408204,87.1529273942871C97.03517168408203,85.64704939428711,96.56458268408204,83.95293039428711,96.56458268408204,82.07057539428712L96.56458268408204,66.72940439428712L102.68222768408202,66.72940439428712L102.68222768408202,81.88234339428712C102.68222768408202,82.8235203942871,102.87046068408203,83.57646539428711,103.24693268408203,84.32940339428711C103.62340568408203,85.0823443942871,104.18811068408203,85.64704939428711,104.94105568408203,86.02352139428712C105.59987668408203,86.39999439428712,106.44693768408203,86.68233839428711,107.29399868408203,86.68233839428711C108.23517568408204,86.68233839428711,108.98811368408204,86.4941103942871,109.74105068408203,86.02352139428712C110.39987168408203,85.64704939428711,111.05870068408203,84.98822739428711,111.43517268408203,84.32940339428711C111.90576168408204,83.5764583942871,112.09399368408204,82.8235203942871,112.09399368408204,81.88234339428712L112.09399368408204,66.72940439428712L118.02340668408203,66.72940439428712L118.02340668408203,82.16469939428711C118.02340668408203,84.0470543942871,117.55281868408203,85.7411723942871,116.61164068408203,87.24705139428711C115.67046368408204,88.75293339428711,114.44693768408203,89.8823513942871,112.75282268408203,90.72940439428712C111.05870868408203,91.5764583942871,109.45869468408203,91.95293039428711,107.38811468408203,91.95293039428711ZM53.45882568408203,120.56470139428711C51.57647368408203,120.56470139428711,49.88235668408203,120.28234439428711,48.28235578408203,119.6235233942871C46.68235538408203,118.96470239428712,45.27059078408203,118.1176413942871,44.14117808408203,116.89411539428711C43.01176568408203,115.7647053942871,42.07058928408203,114.3529393942871,41.41176509408203,112.75293339428711C40.75294089408203,111.15293539428711,40.47058868408203,109.45881239428711,40.47058868408203,107.48234939428711C40.47058868408203,105.59999439428711,40.84706068408203,103.90587239428712,41.50588128408203,102.3058733942871C42.16470198408203,100.70587939428711,43.10588188408203,99.38823339428711,44.23529438408203,98.16469939428711C45.45882268408203,97.0352893942871,46.77647158408203,96.09411239428711,48.47058818408203,95.43528739428712C50.16470528408203,94.77645839428712,51.85882168408203,94.4941103942871,53.74117468408203,94.4941103942871C54.96470368408203,94.4941103942871,56.09411568408203,94.6823423942871,57.22352768408203,94.96469839428711C58.35293968408203,95.24705539428712,59.48235368408203,95.71764339428711,60.42352868408203,96.3764613942871C61.45882268408203,96.94116639428711,62.30588168408203,97.69411039428711,62.96470268408203,98.54117239428712L59.19999668408203,102.77646239428711C58.72940868408203,102.2117573942871,58.16470568408203,101.83529239428711,57.59999668408203,101.36470039428711C57.03529168408203,100.98822739428711,56.47058368408203,100.70587939428711,55.717643684082034,100.42352339428712C54.96470368408203,100.14117039428712,54.30587868408203,100.14117039428712,53.55293868408203,100.14117039428712C52.61176168408203,100.14117039428712,51.67058568408203,100.32940339428711,50.82352568408203,100.7058713942871C49.97646518408203,101.0823443942871,49.22352508408203,101.55293239428711,48.56470108408203,102.2117573942871C47.90587668408203,102.87057139428711,47.43528838408203,103.62351639428711,47.05881978408203,104.5646933942871C46.68234778408203,105.50587039428711,46.49411538408203,106.44704839428711,46.49411538408203,107.57645839428712C46.49411538408203,108.70586739428711,46.68235158408203,109.6470453942871,47.05881978408203,110.58822239428711C47.43529178408203,111.52939239428711,47.905879984082034,112.28233739428711,48.56470108408203,112.94115839428711C49.22352508408203,113.5999793942871,49.97646518408203,114.07056839428711,50.91764168408203,114.44704039428711C51.858817684082034,114.8235133942871,52.89411068408203,114.9176293942871,54.02352368408203,114.9176293942871C54.77646368408203,114.9176293942871,55.52940368408203,114.8235133942871,56.188228684082034,114.63527339428711C56.84705168408203,114.44704039428711,57.50587668408203,114.16468439428711,58.07058168408203,113.7882113942871C58.63528668408203,113.41173939428711,59.199992684082034,113.0352663942871,59.67058168408203,112.47056239428711L62.58822968408203,117.0823323942871C62.02352668408203,117.74114639428711,61.17646568408203,118.30585839428711,60.23529068408203,118.8705633942871C59.29411268408203,119.4352683942871,58.16470168408203,119.81174039428711,56.941171684082036,120.0940973942871C55.81176768408203,120.37646839428712,54.68235468408203,120.56470139428711,53.45882568408203,120.56470139428711ZM78.30586968408204,120.56470839428711C76.42351868408204,120.56470839428711,74.63528468408202,120.28235239428712,73.03528568408203,119.62353139428711C71.43528768408203,118.96471039428711,70.11763968408204,118.11764939428711,68.89410768408203,116.89411539428711C67.76469768408202,115.76471339428711,66.82352268408204,114.35294739428711,66.16469568408203,112.7529413942871C65.50586668408204,111.15293539428711,65.22351868408202,109.45882839428711,65.22351868408202,107.5764733942871C65.22351868408202,105.69411839428712,65.50587468408203,103.99999639428711,66.16469568408203,102.39999739428711C66.82351468408203,100.8000033942871,67.67057568408202,99.4823573942871,68.89410768408203,98.2588233942871C70.02351768408204,97.12941339428711,71.43528168408203,96.18823639428712,73.03528568408203,95.52941139428711C74.63529168408203,94.87058239428711,76.32940268408203,94.5882343942871,78.21175368408203,94.5882343942871C80.09410868408203,94.5882343942871,81.78823068408204,94.8705903942871,83.38822568408203,95.52941139428711C84.98822368408203,96.18823239428711,86.30586968408204,97.0352893942871,87.52940368408204,98.2588233942871C88.65881368408203,99.38823339428711,89.59999068408203,100.79999539428711,90.25881968408203,102.39999739428711C90.91764468408203,104.0000033942871,91.19999268408203,105.69411839428712,91.19999268408203,107.5764733942871C91.19999268408203,109.45882839428711,90.91763668408203,111.15294239428711,90.25881968408203,112.7529413942871C89.59999868408204,114.3529393942871,88.75293768408204,115.7647053942871,87.52940368408204,116.89411539428711C86.39999368408203,118.0235253942871,84.98822768408203,118.96470239428712,83.38822568408203,119.62353139428711C81.88234668408202,120.1882363942871,80.18822468408203,120.56470839428711,78.30586968408204,120.56470839428711ZM78.30586968408204,114.82352839428711C79.24704768408203,114.82352839428711,80.18822468408203,114.63529539428711,81.03528568408203,114.2588233942871C81.88234668408202,113.88235139428711,82.54116868408204,113.41176239428711,83.19999268408203,112.7529413942871C83.76469768408202,112.0941203942871,84.23528668408204,111.3411753942871,84.61175968408203,110.39999739428711C84.98822768408203,109.55294439428711,85.08234368408203,108.51765039428712,85.08234368408203,107.4823573942871C85.08234368408203,106.44706339428711,84.89411168408203,105.5058863942871,84.61175968408203,104.56470839428711C84.23528668408204,103.71764739428711,83.76469768408202,102.87058639428712,83.19999268408203,102.21176539428711C82.63529168408203,101.55294839428711,81.88234668408202,101.08235939428711,81.03528568408203,100.70588639428712C80.18822468408203,100.32941439428711,79.34116368408203,100.14118239428711,78.30586968408204,100.14118239428711C77.27058068408203,100.14118239428711,76.42351868408204,100.32941439428711,75.57645768408203,100.70588639428712C74.72940068408204,101.08235939428711,74.07057968408203,101.55294839428711,73.41175068408202,102.21176539428711C72.75292968408203,102.87058639428712,72.28234068408203,103.62353139428711,71.99998468408202,104.56470839428711C71.71763068408202,105.4117693942871,71.52939768408203,106.44706339428711,71.52939768408203,107.4823573942871C71.52939768408203,108.51765039428712,71.71763068408202,109.45882839428711,71.99998468408202,110.39999739428711C72.28234068408203,111.3411753942871,72.75292968408203,112.0941203942871,73.41175068408202,112.7529413942871C74.07057168408204,113.41176239428711,74.72940068408204,113.88235139428711,75.57645768408203,114.2588233942871C76.42351868408204,114.63529539428711,77.27058068408203,114.82352839428711,78.30586968408204,114.82352839428711ZM107.38814568408203,120.56470839428711C105.50579068408203,120.56470839428711,103.71755968408203,120.28235239428712,102.11756168408203,119.62353139428711C100.51756268408204,118.96471039428711,99.19991668408204,118.11764939428711,97.97638368408204,116.89411539428711C96.84697368408203,115.76471339428711,95.90579968408204,114.35294739428711,95.24697068408203,112.7529413942871C94.58814268408203,111.15293539428711,94.30579368408203,109.45882839428711,94.30579368408203,107.5764733942871C94.30579368408203,105.69411839428712,94.58814968408203,103.99999639428711,95.24697068408203,102.39999739428711C95.90579268408203,100.8000033942871,96.75284968408204,99.4823573942871,97.97638368408204,98.2588233942871C99.10579268408203,97.12941339428711,100.51755568408203,96.18823639428712,102.11756168408203,95.52941139428711C103.71756768408204,94.87058239428711,105.41167468408203,94.5882343942871,107.29402968408203,94.5882343942871C109.17638368408203,94.5882343942871,110.87050668408203,94.8705903942871,112.47049668408204,95.52941139428711C114.07050368408203,96.18823239428711,115.38814568408203,97.0352893942871,116.61167868408204,98.2588233942871C117.74108868408203,99.38823339428711,118.68226668408204,100.79999539428711,119.34109468408204,102.39999739428711C119.99991568408203,104.0000033942871,120.28226468408204,105.69411839428712,120.28226468408204,107.5764733942871C120.28226468408204,109.45882839428711,119.99991568408203,111.15294239428711,119.34109468408204,112.7529413942871C118.68227368408203,114.3529393942871,117.83521268408204,115.7647053942871,116.61167868408204,116.89411539428711C115.48226968408203,118.0235253942871,114.07050368408203,118.96470239428712,112.47049668408204,119.62353139428711C110.96462268408203,120.1882363942871,109.27049968408203,120.56470839428711,107.38814568408203,120.56470839428711ZM107.38814568408203,114.82352839428711C108.32932268408203,114.82352839428711,109.27049968408203,114.63529539428711,110.11756168408203,114.2588233942871C110.96462268408203,113.88235139428711,111.62344368408203,113.41176239428711,112.28226468408204,112.7529413942871C112.84697768408203,112.0941203942871,113.31755868408203,111.3411753942871,113.69403868408203,110.39999739428711C114.07050368408203,109.55294439428711,114.16461968408203,108.51765039428712,114.16461968408203,107.4823573942871C114.16461968408203,106.44706339428711,113.97638668408203,105.5058863942871,113.69403868408203,104.56470839428711C113.31755868408203,103.71764739428711,112.84697768408203,102.87058639428712,112.28226468408204,102.21176539428711C111.71756768408203,101.55294839428711,110.96462268408203,101.08235939428711,110.11756168408203,100.70588639428712C109.27049968408203,100.32941439428711,108.42343868408203,100.14118239428711,107.38814568408203,100.14118239428711C106.35285168408203,100.14118239428711,105.50579068408203,100.32941439428711,104.65873668408203,100.70588639428712C103.81167568408203,101.08235939428711,103.15285468408203,101.55294839428711,102.49402668408203,102.21176539428711C101.83520468408203,102.87058639428712,101.36461668408202,103.62353139428711,101.08225968408203,104.56470839428711C100.79990368408204,105.4117693942871,100.61167168408204,106.44706339428711,100.61167168408204,107.4823573942871C100.61167168408204,108.51765039428712,100.79990368408204,109.45882839428711,101.08225968408203,110.39999739428711C101.36461668408202,111.3411753942871,101.83520468408203,112.0941203942871,102.49402668408203,112.7529413942871C103.15284768408203,113.41176239428711,103.81167568408203,113.88235139428711,104.65873668408203,114.2588233942871C105.50579068408203,114.63529539428711,106.35285168408203,114.82352839428711,107.38814568408203,114.82352839428711Z" fill="#000000" fill-opacity="1" style="mix-blend-mode:passthrough"/></g></svg>